#!OML:ASF H:\Punching\Project 1\Capture day 1\Session 1\female.ASF
:FULLY-SPECIFIED
:DEGREES
1655
root 2.11351 14.8667 4.35759 -14.6542 -22.7939 6.39668
lowerback 4.51948 -4.12054 -3.26714
upperback 0.0344174 -5.60574 3.13574
thorax -1.86259 -2.76863 5.38467
lowerneck -6.30168 5.79091 9.92774
upperneck 45.9266 10.772 -11.5477
head 20.8983 4.49978 -6.04514
rclavicle -6.40087e-014 -9.54166e-015
rhumerus -8.33192 20.8788 -72.9501
rradius 129.481
rwrist -14.1081
rhand -34.3994 10.5417
rfingers 7.12502
rthumb -7.56506 -19.303
lclavicle -6.40087e-014 -9.54166e-015
lhumerus -9.94927 -21.6016 72.3585
lradius 140.148
lwrist -0.944844
lhand -26.4167 -4.06628
lfingers 7.12502
lthumb 0.143275 25.9134
rfemur -81.2259 -1.6105 19.4968
rtibia 74.7888
rfoot 12.7542 -7.48841
rtoes -13.7614
lfemur -3.65158 6.67943 -35.1596
ltibia 35.4971
lfoot -17.8824 13.5733
ltoes 13.5947
1656
root 2.10926 14.8736 4.3187 -14.0327 -22.8716 6.29733
lowerback 4.48302 -4.07923 -3.30616
upperback -0.0433346 -5.5508 3.14185
thorax -1.92463 -2.7373 5.41173
lowerneck -6.38756 5.88304 10.0829
upperneck 45.7799 10.8963 -11.5974
head 20.8677 4.56967 -6.06182
rclavicle 5.96354e-016 -6.36111e-015
rhumerus -8.29041 20.8546 -72.8529
rradius 129.629
rwrist -14.0803
rhand -34.3454 10.6581
rfingers 7.12502
rthumb -7.51298 -19.1885
lclavicle 5.96354e-016 -6.36111e-015
lhumerus -9.72099 -21.2375 71.7263
lradius 140.087
lwrist -0.921182
lhand -26.3333 -4.31545
lfingers 7.12502
lthumb 0.223792 25.6642
rfemur -81.8771 -1.78584 20.0496
rtibia 78.6546
rfoot 12.1653 -7.78716
rtoes -13.0756
lfemur -4.71668 6.62243 -35.0275
ltibia 36.0409
lfoot -17.8689 13.4572
ltoes 13.5266
1657
root 2.1066 14.8782 4.27783 -13.3513 -23.0051 6.13945
lowerback 4.45416 -4.02034 -3.24628
upperback -0.139363 -5.467 3.15419
thorax -2.02187 -2.69102 5.39053
lowerneck -6.47686 5.9731 10.2336
upperneck 45.6169 11.0208 -11.6547
head 20.8262 4.63746 -6.07948
rclavicle 3.08116e-014 1.59028e-014
rhumerus -8.25633 20.81 -72.7508
rradius 129.767
rwrist -13.9517
rhand -34.2876 10.7508
rfingers 7.12502
rthumb -7.45716 -19.0977
lclavicle 3.08116e-014 1.59028e-014
lhumerus -9.45885 -20.8605 71.0501
lradius 140.009
lwrist -0.914372
lhand -26.2817 -4.44681
lfingers 7.12502
lthumb 0.273703 25.5328
rfemur -82.4901 -1.87011 20.5975
rtibia 82.4542
rfoot 11.5483 -7.96524
rtoes -12.5523
lfemur -5.87958 6.58944 -34.8366
ltibia 36.6754
lfoot -17.9011 13.357
ltoes 13.4677
1658
root 2.10619 14.8804 4.2353 -12.6163 -23.1949 5.93998
lowerback 4.42089 -3.9459 -3.09556
upperback -0.253551 -5.35728 3.16738
thorax -2.1464 -2.63169 5.31881
lowerneck -6.55605 6.06178 10.3812
upperneck 45.4308 11.1498 -11.7282
head 20.7662 4.70443 -6.10136
rclavicle -5.40694e-014 2.22639e-014
rhumerus -8.21452 20.7572 -72.6444
rradius 129.89
rwrist -13.7447
rhand -34.2325 10.8037
rfingers 7.12502
rthumb -7.40395 -19.0468
lclavicle -5.40694e-014 2.22639e-014
lhumerus -9.17519 -20.4809 70.3297
lradius 139.938
lwrist -0.88485
lhand -26.2751 -4.40409
lfingers 7.12502
lthumb 0.280087 25.5755
rfemur -83.0487 -1.859 21.1209
rtibia 86.1581
rfoot 10.9155 -8.03246
rtoes -12.1712
lfemur -7.12675 6.57048 -34.6112
ltibia 37.3734
lfoot -17.9729 13.2926
ltoes 13.4239
1659
root 2.10828 14.8806 4.19122 -11.8438 -23.4414 5.71677
lowerback 4.3878 -3.85629 -2.87583
upperback -0.382516 -5.22342 3.1794
thorax -2.29464 -2.56049 5.20679
lowerneck -6.62797 6.15251 10.528
upperneck 45.2214 11.291 -11.8247
head 20.6928 4.77341 -6.13056
rclavicle -1.51076e-014 2.38542e-014
rhumerus -8.14933 20.7113 -72.5301
rradius 129.994
rwrist -13.4965
rhand -34.1751 10.8039
rfingers 7.12502
rthumb -7.34856 -19.0485
lclavicle -1.51076e-014 2.38542e-014
lhumerus -8.87478 -20.0923 69.5683
lradius 139.889
lwrist -0.795232
lhand -26.3188 -4.152
lfingers 7.12502
lthumb 0.237809 25.8276
rfemur -83.5259 -1.75097 21.6043
rtibia 89.742
rfoot 10.2786 -8.0243
rtoes -11.9061
lfemur -8.4276 6.56087 -34.3711
ltibia 38.0953
lfoot -18.0748 13.2781
ltoes 13.3997
1660
root 2.11295 14.8806 4.14511 -11.0442 -23.7477 5.4735
lowerback 4.35767 -3.75182 -2.59932
upperback -0.526701 -5.06637 3.19311
thorax -2.46646 -2.47813 5.06435
lowerneck -6.24108 6.19807 10.5826
upperneck 44.8743 11.4786 -12.039
head 20.2512 4.81183 -6.07483
rclavicle 3.27995e-014 -1.11319e-014
rhumerus -8.06283 20.6873 -72.3996
rradius 130.086
rwrist -13.2614
rhand -34.119 10.7608
rfingers 7.12502
rthumb -7.29446 -19.0935
lclavicle 3.27995e-014 -1.11319e-014
lhumerus -8.5808 -19.6937 68.7864
lradius 139.868
lwrist -0.636915
lhand -26.396 -3.75937
lfingers 7.12502
lthumb 0.163234 26.2203
rfemur -83.8899 -1.54815 22.0436
rtibia 93.1843
rfoot 9.62369 -7.97226
rtoes -11.6968
lfemur -9.75201 6.55316 -34.119
ltibia 38.7962
lfoot -18.188 13.326
ltoes 13.3949
1661
root 2.11979 14.8814 4.09686 -10.2336 -24.112 5.21763
lowerback 4.33643 -3.62655 -2.28136
upperback -0.677148 -4.87915 3.20344
thorax -2.65502 -2.3816 4.89421
lowerneck -6.2888 6.29262 10.7339
upperneck 44.6272 11.6464 -12.1903
head 20.1623 4.88727 -6.12554
rclavicle -2.5842e-015 2.38542e-014
rhumerus -7.95386 20.6669 -72.2486
rradius 130.176
rwrist -13.0875
rhand -34.0704 10.6871
rfingers 7.12502
rthumb -7.24751 -19.1688
lclavicle -2.5842e-015 2.38542e-014
lhumerus -8.28083 -19.2839 67.9884
lradius 139.866
lwrist -0.409854
lhand -26.4972 -3.26772
lfingers 7.12502
lthumb 0.0654976 26.712
rfemur -84.1063 -1.26176 22.4359
rtibia 96.4642
rfoot 8.94378 -7.87825
rtoes -11.5575
lfemur -11.0653 6.54309 -33.8589
ltibia 39.4369
lfoot -18.2952 13.4417
ltoes 13.4051
